# xmcd
#
# Track frame offsets:
#	150
#	14750
#	32513
#	45902
#	62384
#	85824
#	102271
#	114155
#	133611
#	152400
#	162786
#	180131
#	193194
#	202565
#
# Disc length: 2959 seconds
#
# Revision: 1
# Processed by: cddbd v1.5.1PL0 Copyright (c) Steve Scherf et al.
# Submitted via: audiograbber 1.81.02
#
DISCID=970b8d0e
DTITLE=Per and The Ougadougou Blues Quartet - Second Jive
DYEAR=2004
DGENRE=Blues
TTITLE0=Yes Indeed
TTITLE1=Tell Me Somebody
TTITLE2=Plesure Is All Mine
TTITLE3=I'm Not In The Mood
TTITLE4=Disconnected
TTITLE5=Walk You Home
TTITLE6=Troubles Good-Bye
TTITLE7=One Of A Kind
TTITLE8=Signing Up For Love
TTITLE9=Yes Baby
TTITLE10=Don't Put Me Down
TTITLE11=Look At That Girl
TTITLE12=Know I Know
TTITLE13=Going Down With The Sun
EXTD=
EXTT0=
EXTT1=
EXTT2=
EXTT3=
EXTT4=
EXTT5=
EXTT6=
EXTT7=
EXTT8=
EXTT9=
EXTT10=
EXTT11=
EXTT12=
EXTT13=
PLAYORDER=
